C:\GBW_MyPrograms\KinderuniversiteitApp\Resultaten\TymenKool\Model6_v1.mot
version=1
nRows=15
nColumns=31
inDegrees=yes
endheader
                time	         pelvis_tilt	           pelvis_tx	           pelvis_ty	       hip_flexion_r	        knee_angle_r	       ankle_angle_r	       hip_flexion_l	        knee_angle_l	       ankle_angle_l	    lumbar_extension	          arm_flex_r	          arm_flex_l	hamstrings_r/activation	bifemsh_r/activation	glut_max_r/activation	iliopsoas_r/activation	rect_fem_r/activation	  vasti_r/activation	gastroc_r/activation	 soleus_r/activation	tib_ant_r/activation	hamstrings_l/activation	bifemsh_l/activation	glut_max_l/activation	iliopsoas_l/activation	rect_fem_l/activation	  vasti_l/activation	gastroc_l/activation	 soleus_l/activation	tib_ant_l/activation	
          1.08359856	        -10.16463184	          1.39791822	          0.35890999	         27.54393565	        -17.10598369	         -5.52468669	        -20.34534815	        -27.01944280	          0.97605732	          3.04807396	         54.62355275	         54.17768997	          0.14585298	          0.17564361	          0.24757674	          0.20128025	          0.16332563	          0.06502168	          0.05868966	          0.05877821	          0.45420046	          0.15694697	          0.49644928	          0.11263500	          0.73552398	          0.73377224	          0.08267627	          0.06680726	          0.05561980	          0.84757269	
          1.09443454	        -10.40007515	          1.41064756	          0.35177851	         28.17375647	        -18.19946491	         -4.56285116	        -15.32158724	        -28.14161450	          2.80086630	          2.54150060	         52.21687611	         51.68094849	          0.12269361	          0.24966496	          0.20999370	          0.17140364	          0.13839798	          0.32001895	          0.05000773	          0.05000461	          0.38590322	          0.46642877	          0.41949110	          0.09534612	          0.81162447	          0.84517241	          0.08066724	          0.05667293	          0.08596252	          0.71718837	
          1.10527053	        -10.71615850	          1.42324203	          0.34486930	         27.46296356	        -21.14636695	         -1.72354536	         -8.79943305	        -31.23620937	          3.77975412	          2.09769546	         49.32615771	         48.69985854	          0.31508525	          0.27135360	          0.33148353	          0.14659903	          0.11793841	          0.27150091	          0.08416086	          0.14459946	          0.32833493	          0.39475330	          0.35433291	          0.08058971	          0.68724553	          0.71587618	          0.07768543	          0.05053283	          0.09924003	          0.60629938	
          1.11610651	        -11.03589772	          1.43527028	          0.33850898	         27.26947104	        -24.33756317	          1.04628021	         -1.46920754	        -35.96506735	          4.63386832	          1.54096975	         46.25484307	         45.53894763	          0.26716105	          0.23005427	          0.27948293	          0.12446045	          0.29384583	          0.31808093	          0.07105371	          0.12190913	          0.27966779	          0.33454214	          0.62407457	          0.16100830	          0.81701284	          0.83298217	          0.06532918	          0.10177966	          0.08367922	          0.76849569	
          1.12694250	        -11.32466629	          1.44662646	          0.33404426	         27.61573045	        -28.31195396	          2.68766143	          6.28710050	        -41.65102804	          5.98949829	          0.81493764	         43.54674463	         42.74162810	          0.22715930	          0.19492299	          0.23616008	          0.16057025	          0.24877673	          0.42775527	          0.06013520	          0.48794626	          0.23834201	          0.28886640	          0.78035131	          0.18612449	          0.89300595	          0.78938573	          0.05932591	          0.08608594	          0.07048408	          0.86413296	
          1.13777848	        -11.55445605	          1.45783250	          0.33146311	         27.20059865	        -30.62770287	          2.39244206	         13.91130488	        -48.26295875	          7.60124911	          0.06256211	         41.27838939	         40.38401027	          0.19357497	          0.16512593	          0.19966557	          0.13573342	          0.20953557	          0.53007492	          0.05007742	          0.69970400	          0.20314113	          0.25749938	          0.87172714	          0.19317497	          0.93728970	          0.87668804	          0.05006729	          0.07276747	          0.05941867	          0.78050152	
          1.14861447	        -11.78158448	          1.46908747	          0.33078452	         25.47929665	        -30.76576594	          0.77147289	         20.95640339	        -55.39290397	          9.77019818	         -0.64363653	         39.45159069	         38.46805625	          0.16524165	          0.13977216	          0.18974632	          0.11442242	          0.53961971	          0.65435484	          0.15733223	          0.82350516	          0.17296272	          0.23946869	          0.92232358	          0.16320731	          0.79243005	          0.92437671	          0.05001512	          0.06137024	          0.05017497	          0.87192447	
          1.15945045	        -12.09398147	          1.48037494	          0.33230190	         22.86428347	        -28.34885579	         -2.18126381	         27.38951285	        -61.79405548	         11.76224068	         -1.32729246	         38.07437285	         37.00175186	          0.14076845	          0.11811552	          0.17951201	          0.09602891	          0.72972536	          0.74722448	          0.13397440	          0.89718065	          0.14668124	          0.23022835	          0.78082629	          0.13768326	          0.87817670	          0.95511117	          0.16111177	          0.05182317	          0.05003554	          0.73902093	
          1.17028644	        -12.48220249	          1.49178433	          0.33573566	         18.93303454	        -23.44688903	         -6.32772788	         33.61303002	        -65.17623208	         12.63053450	         -2.06162232	         37.15465406	         35.99363760	          0.11953329	          0.09971849	          0.15204005	          0.35159699	          0.61689730	          0.67388735	          0.11417034	          0.76026773	          0.12449332	          0.27560342	          0.66084050	          0.11613525	          0.74252926	          0.80849645	          0.31048852	          0.08017268	          0.06294715	          0.62598648	
          1.18112243	        -12.97891380	          1.50299882	          0.34031294	         14.91542828	        -17.89472589	        -10.77452817	         38.83264859	        -65.88028958	         12.42413988	         -2.97216136	         36.66436711	         35.41680639	          0.10124281	          0.08403632	          0.12861308	          0.60905477	          0.77556347	          0.61832981	          0.09722464	          0.64460581	          0.49091377	          0.38148835	          0.69561558	          0.09793343	          0.84903657	          0.68444845	          0.56966699	          0.12236685	          0.09764156	          0.53022486	
          1.19195841	        -13.61192529	          1.51376704	          0.34603189	         11.61184469	        -13.65800867	        -13.27683525	         42.43068930	        -65.17855828	         11.19078434	         -4.10947121	         36.52052698	         35.22596960	          0.08582016	          0.07087918	          0.10875008	          0.55447659	          0.86825038	          0.52256692	          0.08279389	          0.54706574	          0.70248512	          0.32720121	          0.59271698	          0.08276895	          0.71733555	          0.57900437	          0.53311587	          0.16188933	          0.14502555	          0.44849069	
          1.20279440	        -14.32579110	          1.52413612	          0.35109452	         10.39647725	         -8.93306611	        -13.94472744	         44.68339544	        -63.23500055	         10.21499084	         -5.49176983	         36.28961546	         35.09298493	          0.07251401	          0.05974933	          0.09174541	          0.54311640	          0.92279899	          0.72149150	          0.07060618	          0.46464107	          0.82474702	          0.33692843	          0.50165150	          0.07066175	          0.81455926	          0.75381788	          0.72896127	          0.13689781	          0.12252526	          0.67889985	
          1.21363038	        -15.09809357	          1.53418864	          0.35609235	         10.06397734	         -4.81497122	        -13.85750431	         46.09295122	        -58.25660095	          9.87444452	         -7.11471846	         35.68896165	         34.62365587	          0.06141741	          0.05006115	          0.07738325	          0.68915157	          0.95490588	          0.83676868	          0.06070072	          0.39482167	          0.89658389	          0.35472203	          0.66949301	          0.46262551	          0.81598363	          0.80378998	          0.61698129	          0.11578293	          0.10344421	          0.57391684	
          1.22446637	        -15.80668061	          1.54419054	          0.36152926	         10.90500920	         -1.00805359	        -13.63233784	         46.43264675	        -52.29477753	          9.53155414	         -8.92031404	         34.67417707	         33.72967151	          0.05175609	          0.05903363	          0.06521682	          0.81785610	          0.97377457	          0.90407385	          0.06012114	          0.33561261	          0.76327064	          0.45120713	          0.56797817	          0.55602759	          0.72490821	          0.68582602	          0.67523867	          0.09783643	          0.08733773	          0.55851579	
          1.23530235	        -16.46705618	          1.55440312	          0.36219981	         12.53851533	          1.69530671	        -13.70217037	         44.63965850	        -50.38157168	          9.48414255	        -10.72557858	         33.36180548	         32.49958994	          0.05000486	          0.05010084	          0.07065613	          0.89315762	          0.98458299	          0.94380792	          0.05000599	          0.28548327	          0.64770801	          0.45050613	          0.48290843	          0.70153580	          0.61524687	          0.58191334	          0.57105976	          0.08263328	          0.07377504	          0.48370784	
